{
  "accessors": [
    {
      "bufferView": 2,
      "componentType": 5126,
      "count": 1644,
      "max": [
        0.35063496232032776,
        0.5329506397247314,
        0.35063493251800537
      ],
      "min": [
        -0.35063523054122925,
        -0.01572987250983715,
        -0.35063523054122925
      ],
      "type": "VEC3"
    },
    {
      "bufferView": 2,
      "byteOffset": 19728,
      "componentType": 5126,
      "count": 1644,
      "max": [
        0.9992198944091797,
        1.0,
        0.9992212057113647
      ],
      "min": [
        -0.9992212057113647,
        -1.0,
        -0.9992212057113647
      ],
      "type": "VEC3"
    },
    {
      "bufferView": 1,
      "componentType": 5126,
      "count": 1644,
      "max": [
        1.0000001192092896,
        1.0000001192092896
      ],
      "min": [
        0.0,
        0.017400545999407768
      ],
      "type": "VEC2"
    },
    {
      "bufferView": 0,
      "componentType": 5125,
      "count": 4800,
      "type": "SCALAR"
    },
    {
      "bufferView": 2,
      "byteOffset": 39456,
      "componentType": 5126,
      "count": 730,
      "max": [
        0.3056076765060425,
        0.4840525984764099,
        0.3056073486804962
      ],
      "min": [
        -0.3056073784828186,
        0.461060106754303,
        -0.30560770630836487
      ],
      "type": "VEC3"
    },
    {
      "bufferView": 2,
      "byteOffset": 48216,
      "componentType": 5126,
      "count": 730,
      "max": [
        0.9650084972381592,
        1.0,
        0.9650084972381592
      ],
      "min": [
        -0.9650084972381592,
        0.26221686601638794,
        -0.9650084972381592
      ],
      "type": "VEC3"
    },
    {
      "bufferView": 1,
      "byteOffset": 13152,
      "componentType": 5126,
      "count": 730,
      "max": [
        1.0000001192092896,
        1.0000001192092896
      ],
      "min": [
        0.0,
        0.013428272679448128
      ],
      "type": "VEC2"
    },
    {
      "bufferView": 0,
      "byteOffset": 19200,
      "componentType": 5125,
      "count": 1728,
      "type": "SCALAR"
    },
    {
      "bufferView": 2,
      "byteOffset": 56976,
      "componentType": 5126,
      "count": 53085,
      "max": [
        0.8684320449829102,
        4.770770072937012,
        0.8224766254425049
      ],
      "min": [
        -0.8057075142860413,
        0.36610138416290283,
        -0.8016687035560608
      ],
      "type": "VEC3"
    },
    {
      "bufferView": 2,
      "byteOffset": 693996,
      "componentType": 5126,
      "count": 53085,
      "max": [
        0.9997495412826538,
        0.9999616146087646,
        0.9999879598617554
      ],
      "min": [
        -0.9998574256896973,
        -0.999991774559021,
        -0.9997622966766357
      ],
      "type": "VEC3"
    },
    {
      "bufferView": 1,
      "byteOffset": 18992,
      "componentType": 5126,
      "count": 53085,
      "max": [
        0.6555948257446289,
        1.0000001192092896
      ],
      "min": [
        0.375,
        0.0
      ],
      "type": "VEC2"
    },
    {
      "bufferView": 0,
      "byteOffset": 26112,
      "componentType": 5125,
      "count": 189888,
      "type": "SCALAR"
    },
    {
      "bufferView": 2,
      "byteOffset": 1331016,
      "componentType": 5126,
      "count": 13264,
      "max": [
        0.3367686867713928,
        0.5448465943336487,
        0.32468628883361816
      ],
      "min": [
        -0.33454108238220215,
        0.4429689943790436,
        -0.32799437642097473
      ],
      "type": "VEC3"
    },
    {
      "bufferView": 2,
      "byteOffset": 1490184,
      "componentType": 5126,
      "count": 13264,
      "max": [
        0.9996994733810425,
        0.9999411106109619,
        0.9995018243789673
      ],
      "min": [
        -0.9995054006576538,
        -0.9999935626983643,
        -0.9996978044509888
      ],
      "type": "VEC3"
    },
    {
      "bufferView": 1,
      "byteOffset": 443672,
      "componentType": 5126,
      "count": 13264,
      "max": [
        0.875,
        1.0
      ],
      "min": [
        0.125,
        0.0
      ],
      "type": "VEC2"
    },
    {
      "bufferView": 0,
      "byteOffset": 785664,
      "componentType": 5125,
      "count": 25488,
      "type": "SCALAR"
    }
  ],
  "asset": {
    "extras": {
      "author": "VIS-All-3D (https://sketchfab.com/VIS-All)",
      "license": "CC-BY-4.0 (http://creativecommons.org/licenses/by/4.0/)",
      "source": "https://sketchfab.com/3d-models/office-plant-1-3c28dc89b31d43ed82dab16b33dbd182",
      "title": "Office Plant 1"
    },
    "generator": "Sketchfab-12.67.0",
    "version": "2.0"
  },
  "bufferViews": [
    {
      "buffer": 0,
      "byteLength": 887616,
      "name": "floatBufferViews",
      "target": 34963
    },
    {
      "buffer": 0,
      "byteLength": 549784,
      "byteOffset": 887616,
      "byteStride": 8,
      "name": "floatBufferViews",
      "target": 34962
    },
    {
      "buffer": 0,
      "byteLength": 1649352,
      "byteOffset": 1437400,
      "byteStride": 12,
      "name": "floatBufferViews",
      "target": 34962
    }
  ],
  "buffers": [
    {
      "byteLength": 3086752,
      "uri": "scene.bin"
    }
  ],
  "extensionsUsed": [
    "KHR_materials_clearcoat"
  ],
  "materials": [
    {
      "doubleSided": true,
      "extensions": {
        "KHR_materials_clearcoat": {
          "clearcoatFactor": 1.0,
          "clearcoatRoughnessFactor": 0.6523097494858733
        }
      },
      "name": "material",
      "pbrMetallicRoughness": {
        "baseColorFactor": [
          0.07323570000000001,
          0.0225979,
          0.009445970000000005,
          1.0
        ],
        "metallicFactor": 0.0,
        "roughnessFactor": 0.7983946735217128
      }
    },
    {
      "doubleSided": true,
      "name": "Material.001",
      "pbrMetallicRoughness": {
        "baseColorFactor": [
          0.00489565,
          0.00199807,
          0.00157897,
          1.0
        ],
        "metallicFactor": 0.0,
        "roughnessFactor": 0.5
      }
    },
    {
      "doubleSided": true,
      "extensions": {
        "KHR_materials_clearcoat": {
          "clearcoatFactor": 1.0,
          "clearcoatRoughnessFactor": 0.6097016466420868
        }
      },
      "name": "Green_Plant",
      "pbrMetallicRoughness": {
        "baseColorFactor": [
          0.0760944,
          0.173355,
          0.0344675,
          1.0
        ],
        "metallicFactor": 0.03144882233355544,
        "roughnessFactor": 0.8653502637048058
      }
    },
    {
      "doubleSided": true,
      "name": "Material.002",
      "pbrMetallicRoughness": {
        "baseColorFactor": [
          0.031063799999999996,
          0.02151749999999998,
          0.009148789999999999,
          1.0
        ],
        "metallicFactor": 0.0,
        "roughnessFactor": 0.5
      }
    }
  ],
  "meshes": [
    {
      "name": "Object_0",
      "primitives": [
        {
          "attributes": {
            "NORMAL": 1,
            "POSITION": 0,
            "TEXCOORD_0": 2
          },
          "indices": 3,
          "material": 0,
          "mode": 4
        }
      ]
    },
    {
      "name": "Object_1",
      "primitives": [
        {
          "attributes": {
            "NORMAL": 5,
            "POSITION": 4,
            "TEXCOORD_0": 6
          },
          "indices": 7,
          "material": 1,
          "mode": 4
        }
      ]
    },
    {
      "name": "Object_2",
      "primitives": [
        {
          "attributes": {
            "NORMAL": 9,
            "POSITION": 8,
            "TEXCOORD_0": 10
          },
          "indices": 11,
          "material": 2,
          "mode": 4
        }
      ]
    },
    {
      "name": "Object_3",
      "primitives": [
        {
          "attributes": {
            "NORMAL": 13,
            "POSITION": 12,
            "TEXCOORD_0": 14
          },
          "indices": 15,
          "material": 3,
          "mode": 4
        }
      ]
    }
  ],
  "nodes": [
    {
      "children": [
        1
      ],
      "matrix": [
        0.4733024835586548,
        0.0,
        0.0,
        0.0,
        0.0,
        1.0509426297181763e-16,
        -0.4733024835586548,
        0.0,
        0.0,
        0.4733024835586548,
        1.0509426297181763e-16,
        0.0,
        0.0,
        0.0,
        0.0,
        1.0
      ],
      "name": "Sketchfab_model"
    },
    {
      "children": [
        2
      ],
      "name": "root"
    },
    {
      "children": [
        3
      ],
      "matrix": [
        1.0,
        0.0,
        0.0,
        0.0,
        0.0,
        2.220446049250313e-16,
        1.0,
        0.0,
        0.0,
        -1.0,
        2.220446049250313e-16,
        0.0,
        0.0,
        0.0,
        0.0,
        1.0
      ],
      "name": "GLTF_SceneRootNode"
    },
    {
      "children": [
        4,
        5,
        6,
        7
      ],
      "name": "Office Plant_0"
    },
    {
      "mesh": 0,
      "name": "Object_4"
    },
    {
      "mesh": 1,
      "name": "Object_5"
    },
    {
      "mesh": 2,
      "name": "Object_6"
    },
    {
      "mesh": 3,
      "name": "Object_7"
    }
  ],
  "scene": 0,
  "scenes": [
    {
      "name": "Sketchfab_Scene",
      "nodes": [
        0
      ]
    }
  ]
}
