{
  "accessors": [
    {
      "bufferView": 2,
      "componentType": 5126,
      "count": 116,
      "max": [
        28091.3671875,
        -630.28564453125,
        -558.8069458007813
      ],
      "min": [
        27247.3671875,
        -1030.2890625,
        -836.7457275390625
      ],
      "type": "VEC3"
    },
    {
      "bufferView": 2,
      "byteOffset": 1392,
      "componentType": 5126,
      "count": 116,
      "max": [
        1.0,
        1.0,
        1.0
      ],
      "min": [
        -1.0,
        -1.0,
        -1.0
      ],
      "type": "VEC3"
    },
    {
      "bufferView": 1,
      "componentType": 5126,
      "count": 116,
      "max": [
        0.9684926271438599,
        0.611660361289978
      ],
      "min": [
        0.03150737285614014,
        -5.827299118041992
      ],
      "type": "VEC2"
    },
    {
      "bufferView": 1,
      "byteOffset": 928,
      "componentType": 5126,
      "count": 116,
      "max": [
        0.9684926271438599,
        0.611660361289978
      ],
      "min": [
        0.03150737285614014,
        -5.827299118041992
      ],
      "type": "VEC2"
    },
    {
      "bufferView": 0,
      "componentType": 5125,
      "count": 180,
      "type": "SCALAR"
    },
    {
      "bufferView": 2,
      "byteOffset": 2784,
      "componentType": 5126,
      "count": 116,
      "max": [
        28091.3671875,
        -630.28564453125,
        -558.8069458007813
      ],
      "min": [
        27247.3671875,
        -1030.2890625,
        -836.7457275390625
      ],
      "type": "VEC3"
    },
    {
      "bufferView": 2,
      "byteOffset": 4176,
      "componentType": 5126,
      "count": 116,
      "max": [
        1.0,
        1.0,
        1.0
      ],
      "min": [
        -1.0,
        -1.0,
        -1.0
      ],
      "type": "VEC3"
    },
    {
      "bufferView": 1,
      "byteOffset": 1856,
      "componentType": 5126,
      "count": 116,
      "max": [
        0.9684926271438599,
        0.611660361289978
      ],
      "min": [
        0.03150737285614014,
        -5.827299118041992
      ],
      "type": "VEC2"
    },
    {
      "bufferView": 1,
      "byteOffset": 2784,
      "componentType": 5126,
      "count": 116,
      "max": [
        0.9684926271438599,
        0.611660361289978
      ],
      "min": [
        0.03150737285614014,
        -5.827299118041992
      ],
      "type": "VEC2"
    },
    {
      "bufferView": 0,
      "byteOffset": 720,
      "componentType": 5125,
      "count": 180,
      "type": "SCALAR"
    },
    {
      "bufferView": 2,
      "byteOffset": 5568,
      "componentType": 5126,
      "count": 126,
      "max": [
        -26308.056640625,
        449.7265625,
        638.2161865234375
      ],
      "min": [
        -27162.060546875,
        434.7265625,
        608.2161865234375
      ],
      "type": "VEC3"
    },
    {
      "bufferView": 2,
      "byteOffset": 7080,
      "componentType": 5126,
      "count": 126,
      "max": [
        1.0,
        1.0,
        0.9659250974655151
      ],
      "min": [
        -1.0,
        -1.0,
        -0.9659289717674255
      ],
      "type": "VEC3"
    },
    {
      "bufferView": 1,
      "byteOffset": 3712,
      "componentType": 5126,
      "count": 126,
      "max": [
        12340.658203125,
        180.1999969482422
      ],
      "min": [
        -12340.4580078125,
        -2811.5849609375
      ],
      "type": "VEC2"
    },
    {
      "bufferView": 0,
      "byteOffset": 1440,
      "componentType": 5125,
      "count": 156,
      "type": "SCALAR"
    },
    {
      "bufferView": 2,
      "byteOffset": 8592,
      "componentType": 5126,
      "count": 196,
      "max": [
        1455.1533203125,
        -44.56298828125,
        1095.25390625
      ],
      "min": [
        557.1484375,
        -690.5791015625,
        -1255.4061279296875
      ],
      "type": "VEC3"
    },
    {
      "bufferView": 2,
      "byteOffset": 10944,
      "componentType": 5126,
      "count": 196,
      "max": [
        1.0,
        1.0,
        1.0
      ],
      "min": [
        -1.0,
        -1.0,
        -1.0
      ],
      "type": "VEC3"
    },
    {
      "bufferView": 1,
      "byteOffset": 4720,
      "componentType": 5126,
      "count": 196,
      "max": [
        0.7245012521743774,
        1.0909881591796875
      ],
      "min": [
        0.27549874782562256,
        -0.09098809957504272
      ],
      "type": "VEC2"
    },
    {
      "bufferView": 1,
      "byteOffset": 6288,
      "componentType": 5126,
      "count": 196,
      "max": [
        0.7245012521743774,
        1.0909881591796875
      ],
      "min": [
        0.27549874782562256,
        -0.09098809957504272
      ],
      "type": "VEC2"
    },
    {
      "bufferView": 0,
      "byteOffset": 2064,
      "componentType": 5125,
      "count": 294,
      "type": "SCALAR"
    },
    {
      "bufferView": 2,
      "byteOffset": 13296,
      "componentType": 5126,
      "count": 48,
      "max": [
        1435.828125,
        -60.8505859375,
        649.2538452148438
      ],
      "min": [
        575.828125,
        -634.85205078125,
        -645.9736938476563
      ],
      "type": "VEC3"
    },
    {
      "bufferView": 2,
      "byteOffset": 13872,
      "componentType": 5126,
      "count": 48,
      "max": [
        1.0,
        1.0,
        1.0
      ],
      "min": [
        -1.0,
        -1.0,
        -1.0
      ],
      "type": "VEC3"
    },
    {
      "bufferView": 1,
      "byteOffset": 7856,
      "componentType": 5126,
      "count": 48,
      "max": [
        0.7151614427566528,
        0.8679880499839783
      ],
      "min": [
        0.28483858704566956,
        0.22713208198547363
      ],
      "type": "VEC2"
    },
    {
      "bufferView": 1,
      "byteOffset": 8240,
      "componentType": 5126,
      "count": 48,
      "max": [
        0.7151614427566528,
        0.8679880499839783
      ],
      "min": [
        0.28483858704566956,
        0.22713208198547363
      ],
      "type": "VEC2"
    },
    {
      "bufferView": 0,
      "byteOffset": 3240,
      "componentType": 5125,
      "count": 72,
      "type": "SCALAR"
    },
    {
      "bufferView": 2,
      "byteOffset": 14448,
      "componentType": 5126,
      "count": 28,
      "max": [
        15659.3251953125,
        -817.20703125,
        1252.239013671875
      ],
      "min": [
        15212.9267578125,
        -835.20751953125,
        -1051.760986328125
      ],
      "type": "VEC3"
    },
    {
      "bufferView": 2,
      "byteOffset": 14784,
      "componentType": 5126,
      "count": 28,
      "max": [
        1.0,
        1.0,
        1.0
      ],
      "min": [
        -1.0,
        -1.0,
        -1.0
      ],
      "type": "VEC3"
    },
    {
      "bufferView": 1,
      "byteOffset": 8624,
      "componentType": 5126,
      "count": 28,
      "max": [
        0.6119208335876465,
        1.0759999752044678
      ],
      "min": [
        0.3880791664123535,
        -0.07599997520446777
      ],
      "type": "VEC2"
    },
    {
      "bufferView": 0,
      "byteOffset": 3528,
      "componentType": 5125,
      "count": 36,
      "type": "SCALAR"
    },
    {
      "bufferView": 2,
      "byteOffset": 15120,
      "componentType": 5126,
      "count": 574,
      "max": [
        15660.609375,
        -813.5291137695313,
        217.81454467773438
      ],
      "min": [
        15642.611328125,
        -893.6890258789063,
        -41.126670837402344
      ],
      "type": "VEC3"
    },
    {
      "bufferView": 2,
      "byteOffset": 22008,
      "componentType": 5126,
      "count": 574,
      "max": [
        0.9999998807907104,
        1.0,
        1.0
      ],
      "min": [
        -1.0,
        -1.0,
        -1.0
      ],
      "type": "VEC3"
    },
    {
      "bufferView": 1,
      "byteOffset": 8848,
      "componentType": 5126,
      "count": 574,
      "max": [
        0.6119203567504883,
        0.5587877631187439
      ],
      "min": [
        0.3880796432495117,
        0.4293171763420105
      ],
      "type": "VEC2"
    },
    {
      "bufferView": 0,
      "byteOffset": 3672,
      "componentType": 5125,
      "count": 648,
      "type": "SCALAR"
    },
    {
      "bufferView": 2,
      "byteOffset": 28896,
      "componentType": 5126,
      "count": 28,
      "max": [
        15659.3251953125,
        -817.20703125,
        1252.239013671875
      ],
      "min": [
        15212.9267578125,
        -835.20751953125,
        -1051.760986328125
      ],
      "type": "VEC3"
    },
    {
      "bufferView": 2,
      "byteOffset": 29232,
      "componentType": 5126,
      "count": 28,
      "max": [
        1.0,
        1.0,
        1.0
      ],
      "min": [
        -1.0,
        -1.0,
        -1.0
      ],
      "type": "VEC3"
    },
    {
      "bufferView": 1,
      "byteOffset": 13440,
      "componentType": 5126,
      "count": 28,
      "max": [
        0.6119208335876465,
        1.0759999752044678
      ],
      "min": [
        0.3880791664123535,
        -0.07599997520446777
      ],
      "type": "VEC2"
    },
    {
      "bufferView": 0,
      "byteOffset": 6264,
      "componentType": 5125,
      "count": 36,
      "type": "SCALAR"
    },
    {
      "bufferView": 2,
      "byteOffset": 29568,
      "componentType": 5126,
      "count": 574,
      "max": [
        15660.609375,
        -813.5291137695313,
        217.81454467773438
      ],
      "min": [
        15642.611328125,
        -893.6890258789063,
        -41.126670837402344
      ],
      "type": "VEC3"
    },
    {
      "bufferView": 2,
      "byteOffset": 36456,
      "componentType": 5126,
      "count": 574,
      "max": [
        0.9999998807907104,
        1.0,
        1.0
      ],
      "min": [
        -1.0,
        -1.0,
        -1.0
      ],
      "type": "VEC3"
    },
    {
      "bufferView": 1,
      "byteOffset": 13664,
      "componentType": 5126,
      "count": 574,
      "max": [
        0.6119203567504883,
        0.5587877631187439
      ],
      "min": [
        0.3880796432495117,
        0.4293171763420105
      ],
      "type": "VEC2"
    },
    {
      "bufferView": 0,
      "byteOffset": 6408,
      "componentType": 5125,
      "count": 648,
      "type": "SCALAR"
    },
    {
      "bufferView": 3,
      "componentType": 5126,
      "count": 20,
      "max": [
        0.6333333253860474
      ],
      "min": [
        0.0
      ],
      "type": "SCALAR"
    },
    {
      "bufferView": 4,
      "componentType": 5126,
      "count": 20,
      "max": [
        0.7071067094802856,
        0.5000000596046448,
        -4.214684778958144e-08,
        0.70710688829422
      ],
      "min": [
        0.4999999701976776,
        4.214685134229512e-08,
        -0.49999991059303284,
        0.5000001192092896
      ],
      "type": "VEC4"
    },
    {
      "bufferView": 3,
      "byteOffset": 80,
      "componentType": 5126,
      "count": 20,
      "max": [
        0.6333333253860474
      ],
      "min": [
        0.0
      ],
      "type": "SCALAR"
    },
    {
      "bufferView": 4,
      "byteOffset": 320,
      "componentType": 5126,
      "count": 20,
      "max": [
        0.5000000596046448,
        0.4999999403953552,
        0.5000000596046448,
        0.7071067094802856
      ],
      "min": [
        -0.70710688829422,
        -0.48887965083122253,
        -0.4888797700405121,
        -0.4999999403953552
      ],
      "type": "VEC4"
    }
  ],
  "animations": [
    {
      "channels": [
        {
          "sampler": 0,
          "target": {
            "node": 17,
            "path": "rotation"
          }
        },
        {
          "sampler": 1,
          "target": {
            "node": 21,
            "path": "rotation"
          }
        }
      ],
      "name": "001",
      "samplers": [
        {
          "input": 40,
          "interpolation": "LINEAR",
          "output": 41
        },
        {
          "input": 42,
          "interpolation": "LINEAR",
          "output": 43
        }
      ]
    }
  ],
  "asset": {
    "extras": {
      "author": "Эльба Мебель (https://sketchfab.com/elba)",
      "license": "CC-BY-4.0 (http://creativecommons.org/licenses/by/4.0/)",
      "source": "https://sketchfab.com/3d-models/closet-shd902k-7291e2fd86b84a05844d23c4ed75d1f4",
      "title": "Closet ShD902K"
    },
    "generator": "Sketchfab-13.74.0",
    "version": "2.0"
  },
  "bufferViews": [
    {
      "buffer": 0,
      "byteLength": 9000,
      "name": "floatBufferViews",
      "target": 34963
    },
    {
      "buffer": 0,
      "byteLength": 18256,
      "byteOffset": 9000,
      "byteStride": 8,
      "name": "floatBufferViews",
      "target": 34962
    },
    {
      "buffer": 0,
      "byteLength": 43344,
      "byteOffset": 27256,
      "byteStride": 12,
      "name": "floatBufferViews",
      "target": 34962
    },
    {
      "buffer": 0,
      "byteLength": 160,
      "byteOffset": 70600,
      "name": "floatBufferViews"
    },
    {
      "buffer": 0,
      "byteLength": 640,
      "byteOffset": 70760,
      "byteStride": 16,
      "name": "floatBufferViews"
    }
  ],
  "buffers": [
    {
      "byteLength": 71400,
      "uri": "scene.bin"
    }
  ],
  "images": [
    {
      "uri": "textures/Material_33_baseColor.jpeg"
    },
    {
      "uri": "textures/Material_32_baseColor.jpeg"
    }
  ],
  "materials": [
    {
      "doubleSided": true,
      "name": "Material_33",
      "pbrMetallicRoughness": {
        "baseColorTexture": {
          "index": 0
        },
        "metallicFactor": 0.0,
        "roughnessFactor": 0.8459928851
      }
    },
    {
      "doubleSided": true,
      "name": "Aluminium_Brushed_Clean",
      "pbrMetallicRoughness": {
        "baseColorFactor": [
          0.36926983470546315,
          0.36926983470546315,
          0.36926983470546315,
          1.0
        ],
        "metallicFactor": 0.3337153027513988,
        "roughnessFactor": 0.6
      }
    },
    {
      "doubleSided": true,
      "name": "Material_32",
      "pbrMetallicRoughness": {
        "baseColorTexture": {
          "index": 1
        },
        "metallicFactor": 0.0,
        "roughnessFactor": 0.8459928851
      }
    },
    {
      "doubleSided": true,
      "name": "Bel_shpon_duba_vert",
      "pbrMetallicRoughness": {
        "baseColorTexture": {
          "index": 0
        },
        "metallicFactor": 0.0,
        "roughnessFactor": 0.6
      }
    },
    {
      "doubleSided": true,
      "name": "Bel_shpon_duba_vert_0",
      "pbrMetallicRoughness": {
        "baseColorTexture": {
          "index": 0
        },
        "metallicFactor": 0.0,
        "roughnessFactor": 0.6
      }
    }
  ],
  "meshes": [
    {
      "name": "Yajik_2_Material #33_0",
      "primitives": [
        {
          "attributes": {
            "NORMAL": 1,
            "POSITION": 0,
            "TEXCOORD_0": 2,
            "TEXCOORD_1": 3
          },
          "indices": 4,
          "material": 0,
          "mode": 4
        }
      ]
    },
    {
      "name": "Yajik_1_Material #33_0",
      "primitives": [
        {
          "attributes": {
            "NORMAL": 6,
            "POSITION": 5,
            "TEXCOORD_0": 7,
            "TEXCOORD_1": 8
          },
          "indices": 9,
          "material": 0,
          "mode": 4
        }
      ]
    },
    {
      "name": "Shtanga_Aluminium Brushed Clean_0",
      "primitives": [
        {
          "attributes": {
            "NORMAL": 11,
            "POSITION": 10,
            "TEXCOORD_0": 12
          },
          "indices": 13,
          "material": 1,
          "mode": 4
        }
      ]
    },
    {
      "name": "Karkas_Material #33_0",
      "primitives": [
        {
          "attributes": {
            "NORMAL": 15,
            "POSITION": 14,
            "TEXCOORD_0": 16,
            "TEXCOORD_1": 17
          },
          "indices": 18,
          "material": 0,
          "mode": 4
        }
      ]
    },
    {
      "name": "Karkas_Material #32_0",
      "primitives": [
        {
          "attributes": {
            "NORMAL": 20,
            "POSITION": 19,
            "TEXCOORD_0": 21,
            "TEXCOORD_1": 22
          },
          "indices": 23,
          "material": 2,
          "mode": 4
        }
      ]
    },
    {
      "name": "Fasad_R_Bel_shpon_duba_vert_0",
      "primitives": [
        {
          "attributes": {
            "NORMAL": 25,
            "POSITION": 24,
            "TEXCOORD_0": 26
          },
          "indices": 27,
          "material": 3,
          "mode": 4
        }
      ]
    },
    {
      "name": "Fasad_R_Aluminium Brushed Clean_0",
      "primitives": [
        {
          "attributes": {
            "NORMAL": 29,
            "POSITION": 28,
            "TEXCOORD_0": 30
          },
          "indices": 31,
          "material": 1,
          "mode": 4
        }
      ]
    },
    {
      "name": "Fasad_R001_Bel_shpon_duba_vert_0",
      "primitives": [
        {
          "attributes": {
            "NORMAL": 33,
            "POSITION": 32,
            "TEXCOORD_0": 34
          },
          "indices": 35,
          "material": 4,
          "mode": 4
        }
      ]
    },
    {
      "name": "Fasad_R001_Aluminium Brushed Clean_0",
      "primitives": [
        {
          "attributes": {
            "NORMAL": 37,
            "POSITION": 36,
            "TEXCOORD_0": 38
          },
          "indices": 39,
          "material": 1,
          "mode": 4
        }
      ]
    }
  ],
  "nodes": [
    {
      "children": [
        1
      ],
      "matrix": [
        -1.0,
        6.290011496532519e-32,
        -2.832769343193999e-16,
        0.0,
        -2.832769343193999e-16,
        -2.220446049250313e-16,
        1.0,
        0.0,
        0.0,
        1.0,
        2.220446049250313e-16,
        0.0,
        0.0,
        0.0,
        0.0,
        1.0
      ],
      "name": "Sketchfab_model"
    },
    {
      "children": [
        2
      ],
      "matrix": [
        0.0010000000474974513,
        0.0,
        0.0,
        0.0,
        0.0,
        0.0,
        0.0010000000474974513,
        0.0,
        0.0,
        -0.0010000000474974513,
        0.0,
        0.0,
        0.0,
        0.0,
        0.0,
        1.0
      ],
      "name": "26fd2a957b424c56ad1186186a45fbdc.fbx"
    },
    {
      "children": [
        3
      ],
      "name": "Object_2"
    },
    {
      "children": [
        4,
        7,
        10,
        13,
        17,
        21
      ],
      "name": "RootNode"
    },
    {
      "children": [
        5
      ],
      "name": "Yajik_2",
      "rotation": [
        -0.7071065306663513,
        -0.0006170669803395867,
        -0.0006170669803395867,
        0.7071065306663513
      ],
      "translation": [
        132.82382202148438,
        74.0755615234375,
        13.193603515625
      ]
    },
    {
      "children": [
        6
      ],
      "matrix": [
        1.0,
        0.0,
        -0.0,
        0.0,
        0.0,
        1.0,
        0.0,
        0.0,
        0.0,
        0.0,
        1.0,
        0.0,
        -27669.3359375,
        839.3212890625,
        770.2459716796875,
        1.0
      ],
      "name": "Object_5"
    },
    {
      "mesh": 0,
      "name": "Yajik_2_Material #33_0"
    },
    {
      "children": [
        8
      ],
      "name": "Yajik_1",
      "rotation": [
        -0.7071065306663513,
        -0.0006170669803395867,
        -0.0006170669803395867,
        0.7071065306663513
      ],
      "translation": [
        132.82382202148438,
        385.0858459472656,
        13.193602561950684
      ]
    },
    {
      "children": [
        9
      ],
      "matrix": [
        1.0,
        0.0,
        -0.0,
        0.0,
        0.0,
        1.0,
        0.0,
        0.0,
        0.0,
        0.0,
        1.0,
        0.0,
        -27669.3359375,
        839.3212890625,
        770.2459716796875,
        1.0
      ],
      "name": "Object_8"
    },
    {
      "mesh": 1,
      "name": "Yajik_1_Material #33_0"
    },
    {
      "children": [
        11
      ],
      "name": "Shtanga",
      "rotation": [
        -0.7071068286895752,
        3.161013850672134e-08,
        3.161013850672134e-08,
        0.7071068286895752
      ],
      "translation": [
        133.58741760253906,
        1786.0,
        -51.088653564453125
      ]
    },
    {
      "children": [
        12
      ],
      "matrix": [
        1.0,
        0.0,
        -0.0,
        0.0,
        0.0,
        1.0,
        0.0,
        0.0,
        0.0,
        0.0,
        1.0,
        0.0,
        26735.05859375,
        -442.2265625,
        -623.2161865234375,
        1.0
      ],
      "name": "Object_11"
    },
    {
      "mesh": 2,
      "name": "Shtanga_Aluminium Brushed Clean_0"
    },
    {
      "children": [
        14
      ],
      "name": "Karkas",
      "rotation": [
        -0.7071068286895752,
        3.161013850672134e-08,
        3.161013850672134e-08,
        0.7071068286895752
      ],
      "translation": [
        132.88580322265625,
        1154.0,
        -84.5220947265625
      ]
    },
    {
      "children": [
        15,
        16
      ],
      "matrix": [
        1.0,
        0.0,
        -0.0,
        0.0,
        0.0,
        1.0,
        0.0,
        0.0,
        0.0,
        0.0,
        1.0,
        0.0,
        -1006.15234375,
        342.5634765625,
        96.74591064453125,
        1.0
      ],
      "name": "Object_14"
    },
    {
      "mesh": 3,
      "name": "Karkas_Material #33_0"
    },
    {
      "mesh": 4,
      "name": "Karkas_Material #32_0"
    },
    {
      "children": [
        18
      ],
      "name": "Fasad_R",
      "rotation": [
        0.7071066498756409,
        5.268356773058258e-08,
        -5.2683553519727866e-08,
        0.7071069478988647
      ],
      "scale": [
        -1.0,
        -0.39956098794937134,
        -1.0
      ],
      "translation": [
        580.2288818359375,
        1151.67626953125,
        214.13839721679688
      ]
    },
    {
      "children": [
        19,
        20
      ],
      "matrix": [
        1.0,
        0.0,
        -0.0,
        0.0,
        0.0,
        1.0,
        0.0,
        0.0,
        0.0,
        0.0,
        1.0,
        0.0,
        -15213.1630859375,
        817.5861206054688,
        -100.23902893066406,
        1.0
      ],
      "name": "Object_18"
    },
    {
      "mesh": 5,
      "name": "Fasad_R_Bel_shpon_duba_vert_0"
    },
    {
      "mesh": 6,
      "name": "Fasad_R_Aluminium Brushed Clean_0"
    },
    {
      "children": [
        22
      ],
      "name": "Fasad_R001",
      "rotation": [
        -0.7071069478988647,
        4.2146844236867764e-08,
        4.21468548950088e-08,
        0.7071066498756409
      ],
      "scale": [
        1.0,
        0.39956098794937134,
        1.0
      ],
      "translation": [
        -315.24029541015625,
        1151.67626953125,
        214.13839721679688
      ]
    },
    {
      "children": [
        23,
        24
      ],
      "matrix": [
        1.0,
        0.0,
        -0.0,
        0.0,
        0.0,
        1.0,
        0.0,
        0.0,
        0.0,
        0.0,
        1.0,
        0.0,
        -15213.1630859375,
        817.5861206054688,
        -100.23902893066406,
        1.0
      ],
      "name": "Object_22"
    },
    {
      "mesh": 7,
      "name": "Fasad_R001_Bel_shpon_duba_vert_0"
    },
    {
      "mesh": 8,
      "name": "Fasad_R001_Aluminium Brushed Clean_0"
    }
  ],
  "samplers": [
    {
      "magFilter": 9729,
      "minFilter": 9987,
      "wrapS": 10497,
      "wrapT": 10497
    }
  ],
  "scene": 0,
  "scenes": [
    {
      "name": "Sketchfab_Scene",
      "nodes": [
        0
      ]
    }
  ],
  "textures": [
    {
      "sampler": 0,
      "source": 0
    },
    {
      "sampler": 0,
      "source": 1
    }
  ]
}
