{
  "accessors": [
    {
      "bufferView": 2,
      "componentType": 5126,
      "count": 128,
      "max": [
        -0.8073869943618774,
        3.9731531143188477,
        2.2301828861236572
      ],
      "min": [
        -0.8803179860115051,
        3.9443509578704834,
        2.1572508811950684
      ],
      "type": "VEC3"
    },
    {
      "bufferView": 0,
      "componentType": 5125,
      "count": 128,
      "type": "SCALAR"
    },
    {
      "bufferView": 2,
      "byteOffset": 1536,
      "componentType": 5126,
      "count": 416,
      "max": [
        -0.009860999882221222,
        3.978656053543091,
        2.060797929763794
      ],
      "min": [
        -0.9242609739303589,
        3.9388480186462402,
        0.028798000887036324
      ],
      "type": "VEC3"
    },
    {
      "bufferView": 2,
      "byteOffset": 6528,
      "componentType": 5126,
      "count": 416,
      "max": [
        1.0,
        1.0,
        1.0
      ],
      "min": [
        -1.0,
        -1.0,
        -1.0
      ],
      "type": "VEC3"
    },
    {
      "bufferView": 1,
      "componentType": 5126,
      "count": 416,
      "max": [
        0.9999780058860779,
        0.9899640083312988
      ],
      "min": [
        0.0020240000449121,
        0.0011190000222995877
      ],
      "type": "VEC2"
    },
    {
      "bufferView": 0,
      "byteOffset": 512,
      "componentType": 5125,
      "count": 840,
      "type": "SCALAR"
    },
    {
      "bufferView": 2,
      "byteOffset": 11520,
      "componentType": 5126,
      "count": 12,
      "max": [
        3.1586859226226807,
        4.0,
        3.0480000972747803
      ],
      "min": [
        -3.1586859226226807,
        -3.931446075439453,
        3.0480000972747803
      ],
      "type": "VEC3"
    },
    {
      "bufferView": 2,
      "byteOffset": 11664,
      "componentType": 5126,
      "count": 12,
      "max": [
        0.0,
        9.999999747378752e-05,
        -1.0
      ],
      "min": [
        0.0,
        -0.0,
        -1.0
      ],
      "type": "VEC3"
    },
    {
      "bufferView": 3,
      "componentType": 5126,
      "count": 12,
      "max": [
        1.0,
        0.8866008520126343,
        0.0,
        1.0
      ],
      "min": [
        -1.0,
        -0.017412733286619186,
        0.0,
        1.0
      ],
      "type": "VEC4"
    },
    {
      "bufferView": 1,
      "byteOffset": 3328,
      "componentType": 5126,
      "count": 12,
      "max": [
        0.41266098618507385,
        0.6696190237998962
      ],
      "min": [
        0.005109999794512987,
        0.37669500708580017
      ],
      "type": "VEC2"
    },
    {
      "bufferView": 0,
      "byteOffset": 3872,
      "componentType": 5125,
      "count": 24,
      "type": "SCALAR"
    },
    {
      "bufferView": 2,
      "byteOffset": 11808,
      "componentType": 5126,
      "count": 10,
      "max": [
        3.1586859226226807,
        4.834525108337402,
        0.0
      ],
      "min": [
        -3.1586859226226807,
        -3.931446075439453,
        0.0
      ],
      "type": "VEC3"
    },
    {
      "bufferView": 2,
      "byteOffset": 11928,
      "componentType": 5126,
      "count": 10,
      "max": [
        0.0,
        -0.0,
        1.0
      ],
      "min": [
        0.0,
        -0.0,
        1.0
      ],
      "type": "VEC3"
    },
    {
      "bufferView": 3,
      "byteOffset": 192,
      "componentType": 5126,
      "count": 10,
      "max": [
        -1.0,
        0.0,
        0.0,
        1.0
      ],
      "min": [
        -1.0,
        0.0,
        0.0,
        1.0
      ],
      "type": "VEC4"
    },
    {
      "bufferView": 1,
      "byteOffset": 3424,
      "componentType": 5126,
      "count": 10,
      "max": [
        0.9768750071525574,
        0.49959298968315125
      ],
      "min": [
        0.6399070024490356,
        0.032017000019550323
      ],
      "type": "VEC2"
    },
    {
      "bufferView": 0,
      "byteOffset": 3968,
      "componentType": 5125,
      "count": 24,
      "type": "SCALAR"
    },
    {
      "bufferView": 2,
      "byteOffset": 12048,
      "componentType": 5126,
      "count": 260,
      "max": [
        0.981194019317627,
        0.9811949729919434,
        2.301060914993286
      ],
      "min": [
        -0.981194019317627,
        -0.981194019317627,
        2.232719898223877
      ],
      "type": "VEC3"
    },
    {
      "bufferView": 2,
      "byteOffset": 15168,
      "componentType": 5126,
      "count": 260,
      "max": [
        0.7149133682250977,
        0.7149133682250977,
        0.6992315649986267
      ],
      "min": [
        -0.7149133682250977,
        -0.7149133682250977,
        -0.6992315649986267
      ],
      "type": "VEC3"
    },
    {
      "bufferView": 1,
      "byteOffset": 3504,
      "componentType": 5126,
      "count": 260,
      "max": [
        0.06330099701881409,
        0.9992799758911133
      ],
      "min": [
        0.008677000179886818,
        0.0007200000109151006
      ],
      "type": "VEC2"
    },
    {
      "bufferView": 0,
      "byteOffset": 4064,
      "componentType": 5125,
      "count": 768,
      "type": "SCALAR"
    },
    {
      "bufferView": 2,
      "byteOffset": 18288,
      "componentType": 5126,
      "count": 50,
      "max": [
        3.1586859226226807,
        4.834525108337402,
        3.0480000972747803
      ],
      "min": [
        -3.1586859226226807,
        -3.931446075439453,
        0.0
      ],
      "type": "VEC3"
    },
    {
      "bufferView": 2,
      "byteOffset": 18888,
      "componentType": 5126,
      "count": 50,
      "max": [
        1.0,
        -0.0,
        0.05610141158103943
      ],
      "min": [
        -1.0,
        -1.0,
        -0.9999948740005493
      ],
      "type": "VEC3"
    },
    {
      "bufferView": 3,
      "byteOffset": 352,
      "componentType": 5126,
      "count": 50,
      "max": [
        1.0,
        1.0,
        0.0038228894118219614,
        1.0
      ],
      "min": [
        -0.9999948740005493,
        -0.9999982118606567,
        -0.7071158289909363,
        -1.0
      ],
      "type": "VEC4"
    },
    {
      "bufferView": 1,
      "byteOffset": 5584,
      "componentType": 5126,
      "count": 50,
      "max": [
        0.9931430220603943,
        0.9923760294914246
      ],
      "min": [
        0.003493000054731965,
        0.002725000027567148
      ],
      "type": "VEC2"
    },
    {
      "bufferView": 0,
      "byteOffset": 7136,
      "componentType": 5125,
      "count": 90,
      "type": "SCALAR"
    },
    {
      "bufferView": 2,
      "byteOffset": 19488,
      "componentType": 5126,
      "count": 6850,
      "max": [
        1.3497689962387085,
        4.146851062774658,
        3.009613037109375
      ],
      "min": [
        -1.332334041595459,
        -1.036025047302246,
        0.7342399954795837
      ],
      "type": "VEC3"
    },
    {
      "bufferView": 2,
      "byteOffset": 101688,
      "componentType": 5126,
      "count": 6850,
      "max": [
        1.0,
        1.0,
        1.0
      ],
      "min": [
        -1.0,
        -1.0,
        -1.0
      ],
      "type": "VEC3"
    },
    {
      "bufferView": 1,
      "byteOffset": 5984,
      "componentType": 5126,
      "count": 6850,
      "max": [
        0.9996089935302734,
        0.9999390244483948
      ],
      "min": [
        6.199999916134402e-05,
        6.199999916134402e-05
      ],
      "type": "VEC2"
    },
    {
      "bufferView": 0,
      "byteOffset": 7496,
      "componentType": 5125,
      "count": 19440,
      "type": "SCALAR"
    },
    {
      "bufferView": 2,
      "byteOffset": 183888,
      "componentType": 5126,
      "count": 24,
      "max": [
        3.134366989135742,
        3.980272054672241,
        2.1808159351348877
      ],
      "min": [
        -3.134366989135742,
        -1.9312609434127808,
        1.0840009450912476
      ],
      "type": "VEC3"
    },
    {
      "bufferView": 2,
      "byteOffset": 184176,
      "componentType": 5126,
      "count": 24,
      "max": [
        1.0,
        1.0,
        0.0
      ],
      "min": [
        -1.0,
        -0.0,
        -1.0
      ],
      "type": "VEC3"
    },
    {
      "bufferView": 1,
      "byteOffset": 60784,
      "componentType": 5126,
      "count": 24,
      "max": [
        0.9998999834060669,
        0.9998999834060669
      ],
      "min": [
        9.999999747378752e-05,
        7.699999696342275e-05
      ],
      "type": "VEC2"
    },
    {
      "bufferView": 0,
      "byteOffset": 85256,
      "componentType": 5125,
      "count": 36,
      "type": "SCALAR"
    },
    {
      "bufferView": 2,
      "byteOffset": 184464,
      "componentType": 5126,
      "count": 471,
      "max": [
        3.1656649112701416,
        3.115302085876465,
        3.048898935317993
      ],
      "min": [
        -3.1656649112701416,
        -4.001180171966553,
        0.0
      ],
      "type": "VEC3"
    },
    {
      "bufferView": 2,
      "byteOffset": 190116,
      "componentType": 5126,
      "count": 471,
      "max": [
        1.0,
        1.0,
        1.0
      ],
      "min": [
        -1.0,
        -1.0,
        -1.0
      ],
      "type": "VEC3"
    },
    {
      "bufferView": 1,
      "byteOffset": 60976,
      "componentType": 5126,
      "count": 471,
      "max": [
        0.976876974105835,
        0.9999229907989502
      ],
      "min": [
        7.500000356230885e-05,
        7.500000356230885e-05
      ],
      "type": "VEC2"
    },
    {
      "bufferView": 0,
      "byteOffset": 85400,
      "componentType": 5125,
      "count": 810,
      "type": "SCALAR"
    }
  ],
  "asset": {
    "extras": {
      "author": "natcrot (https://sketchfab.com/natcrot)",
      "license": "CC-BY-4.0 (http://creativecommons.org/licenses/by/4.0/)",
      "source": "https://sketchfab.com/3d-models/white-room1-26a61fba0d5d41dcbe01478de9831218",
      "title": "White-room1"
    },
    "generator": "Sketchfab-12.64.0",
    "version": "2.0"
  },
  "bufferViews": [
    {
      "buffer": 0,
      "byteLength": 88640,
      "name": "floatBufferViews",
      "target": 34963
    },
    {
      "buffer": 0,
      "byteLength": 64744,
      "byteOffset": 88640,
      "byteStride": 8,
      "name": "floatBufferViews",
      "target": 34962
    },
    {
      "buffer": 0,
      "byteLength": 195768,
      "byteOffset": 153384,
      "byteStride": 12,
      "name": "floatBufferViews",
      "target": 34962
    },
    {
      "buffer": 0,
      "byteLength": 1152,
      "byteOffset": 349152,
      "byteStride": 16,
      "name": "floatBufferViews",
      "target": 34962
    }
  ],
  "buffers": [
    {
      "byteLength": 350304,
      "uri": "scene.bin"
    }
  ],
  "extensionsUsed": [
    "KHR_materials_clearcoat"
  ],
  "images": [
    {
      "uri": "textures/ceiling_baseColor.png"
    },
    {
      "uri": "textures/ceiling_metallicRoughness.png"
    },
    {
      "uri": "textures/ceiling_normal.png"
    },
    {
      "uri": "textures/floor_metallicRoughness.png"
    },
    {
      "uri": "textures/floor_normal.png"
    },
    {
      "uri": "textures/light_baseColor.png"
    },
    {
      "uri": "textures/light_emissive.png"
    }
  ],
  "materials": [
    {
      "name": "Material",
      "pbrMetallicRoughness": {
        "baseColorFactor": [
          0.8,
          0.8,
          0.8,
          1.0
        ],
        "metallicFactor": 0.0,
        "roughnessFactor": 0.5
      }
    },
    {
      "doubleSided": true,
      "name": "ceiling",
      "normalTexture": {
        "index": 2,
        "scale": 0.15
      },
      "pbrMetallicRoughness": {
        "baseColorTexture": {
          "index": 0
        },
        "metallicFactor": 0.0,
        "metallicRoughnessTexture": {
          "index": 1
        }
      }
    },
    {
      "doubleSided": true,
      "name": "floor",
      "normalTexture": {
        "index": 4,
        "scale": 0.17
      },
      "pbrMetallicRoughness": {
        "baseColorTexture": {
          "index": 0
        },
        "metallicFactor": 0.0,
        "metallicRoughnessTexture": {
          "index": 3
        }
      }
    },
    {
      "doubleSided": true,
      "emissiveFactor": [
        1.0,
        1.0,
        1.0
      ],
      "emissiveTexture": {
        "index": 6
      },
      "name": "light",
      "pbrMetallicRoughness": {
        "baseColorTexture": {
          "index": 5
        },
        "metallicFactor": 0.0,
        "roughnessFactor": 0.7261387212474169
      }
    },
    {
      "doubleSided": true,
      "name": "metallic_black",
      "pbrMetallicRoughness": {
        "baseColorFactor": [
          0.020302,
          0.020302,
          0.020302,
          1.0
        ],
        "metallicFactor": 0.0,
        "roughnessFactor": 0.8063508326896291
      }
    },
    {
      "doubleSided": true,
      "extensions": {
        "KHR_materials_clearcoat": {
          "clearcoatFactor": 1.0,
          "clearcoatRoughnessFactor": 0.04
        }
      },
      "name": "painting",
      "pbrMetallicRoughness": {
        "baseColorFactor": [
          0.8,
          0.8,
          0.8,
          1.0
        ],
        "metallicFactor": 0.0,
        "roughnessFactor": 0.0
      }
    },
    {
      "doubleSided": true,
      "name": "walls",
      "normalTexture": {
        "index": 4
      },
      "pbrMetallicRoughness": {
        "baseColorTexture": {
          "index": 0
        },
        "metallicFactor": 0.0,
        "metallicRoughnessTexture": {
          "index": 3
        }
      }
    },
    {
      "doubleSided": true,
      "name": "window_frame",
      "pbrMetallicRoughness": {
        "baseColorFactor": [
          0.0331,
          0.0331,
          0.0331,
          1.0
        ],
        "metallicFactor": 0.0,
        "roughnessFactor": 0.7880318375580224
      }
    }
  ],
  "meshes": [
    {
      "name": "Object_0",
      "primitives": [
        {
          "attributes": {
            "POSITION": 0
          },
          "indices": 1,
          "material": 0,
          "mode": 1
        }
      ]
    },
    {
      "name": "Object_1",
      "primitives": [
        {
          "attributes": {
            "NORMAL": 3,
            "POSITION": 2,
            "TEXCOORD_0": 4
          },
          "indices": 5,
          "material": 0,
          "mode": 4
        }
      ]
    },
    {
      "name": "Object_2",
      "primitives": [
        {
          "attributes": {
            "NORMAL": 7,
            "POSITION": 6,
            "TANGENT": 8,
            "TEXCOORD_0": 9
          },
          "indices": 10,
          "material": 1,
          "mode": 4
        }
      ]
    },
    {
      "name": "Object_3",
      "primitives": [
        {
          "attributes": {
            "NORMAL": 12,
            "POSITION": 11,
            "TANGENT": 13,
            "TEXCOORD_0": 14
          },
          "indices": 15,
          "material": 2,
          "mode": 4
        }
      ]
    },
    {
      "name": "Object_4",
      "primitives": [
        {
          "attributes": {
            "NORMAL": 17,
            "POSITION": 16,
            "TEXCOORD_0": 18
          },
          "indices": 19,
          "material": 3,
          "mode": 4
        }
      ]
    },
    {
      "name": "Object_5",
      "primitives": [
        {
          "attributes": {
            "NORMAL": 21,
            "POSITION": 20,
            "TANGENT": 22,
            "TEXCOORD_0": 23
          },
          "indices": 24,
          "material": 6,
          "mode": 4
        }
      ]
    },
    {
      "name": "Object_6",
      "primitives": [
        {
          "attributes": {
            "NORMAL": 26,
            "POSITION": 25,
            "TEXCOORD_0": 27
          },
          "indices": 28,
          "material": 4,
          "mode": 4
        }
      ]
    },
    {
      "name": "Object_7",
      "primitives": [
        {
          "attributes": {
            "NORMAL": 30,
            "POSITION": 29,
            "TEXCOORD_0": 31
          },
          "indices": 32,
          "material": 5,
          "mode": 4
        }
      ]
    },
    {
      "name": "Object_8",
      "primitives": [
        {
          "attributes": {
            "NORMAL": 34,
            "POSITION": 33,
            "TEXCOORD_0": 35
          },
          "indices": 36,
          "material": 7,
          "mode": 4
        }
      ]
    }
  ],
  "nodes": [
    {
      "children": [
        1
      ],
      "matrix": [
        0.9151082038879395,
        0.0,
        0.0,
        0.0,
        0.0,
        2.0319483959595252e-16,
        -0.9151082038879395,
        0.0,
        0.0,
        0.9151082038879395,
        2.0319483959595252e-16,
        0.0,
        0.0,
        0.0,
        0.0,
        1.0
      ],
      "name": "Sketchfab_model"
    },
    {
      "children": [
        2,
        3,
        4,
        5,
        6,
        7,
        8,
        9,
        10
      ],
      "name": "white-room1.obj.cleaner.materialmerger.gles"
    },
    {
      "mesh": 0,
      "name": "Object_2"
    },
    {
      "mesh": 1,
      "name": "Object_3"
    },
    {
      "mesh": 2,
      "name": "Object_4"
    },
    {
      "mesh": 3,
      "name": "Object_5"
    },
    {
      "mesh": 4,
      "name": "Object_6"
    },
    {
      "mesh": 5,
      "name": "Object_7"
    },
    {
      "mesh": 6,
      "name": "Object_8"
    },
    {
      "mesh": 7,
      "name": "Object_9"
    },
    {
      "mesh": 8,
      "name": "Object_10"
    }
  ],
  "samplers": [
    {
      "magFilter": 9729,
      "minFilter": 9987,
      "wrapS": 10497,
      "wrapT": 10497
    }
  ],
  "scene": 0,
  "scenes": [
    {
      "name": "Sketchfab_Scene",
      "nodes": [
        0
      ]
    }
  ],
  "textures": [
    {
      "sampler": 0,
      "source": 0
    },
    {
      "sampler": 0,
      "source": 1
    },
    {
      "sampler": 0,
      "source": 2
    },
    {
      "sampler": 0,
      "source": 3
    },
    {
      "sampler": 0,
      "source": 4
    },
    {
      "sampler": 0,
      "source": 5
    },
    {
      "sampler": 0,
      "source": 6
    }
  ]
}
